<svg width="24" height="24" viewBox="0 0 24 24" fill="none" xmlns="http://www.w3.org/2000/svg">
<g clip-path="url(#clip0_1108_33)">
<path d="M15.5046 4.50586H14.9883V2.98828C14.9883 1.34054 13.6477 0 12 0C10.3523 0 9.01172 1.34054 9.01172 2.98828V4.50586H8.49542C7.95106 4.50586 7.50977 4.94715 7.50977 5.49152V8.99609C7.50977 11.472 9.52407 13.4863 12 13.4863C14.4759 13.4863 16.4902 11.472 16.4902 8.99609V5.49152C16.4902 4.94715 16.0489 4.50586 15.5046 4.50586ZM10.983 2.98828C10.983 2.42753 11.4393 1.97131 12 1.97131C12.5607 1.97131 13.017 2.42753 13.017 2.98828V4.50586H10.983V2.98828Z" fill="#FC573B"/>
<path d="M19.5098 15.0195H4.49023C2.01431 15.0195 0 17.0338 0 19.5098C0 21.9857 2.01431 24 4.49023 24H19.5098C21.9857 24 24 21.9857 24 19.5098C24 17.0338 21.9857 15.0195 19.5098 15.0195Z" fill="#FD907E"/>
<path d="M15.5046 4.50586H8.49542C7.95106 4.50586 7.50977 4.94715 7.50977 5.49152V8.99609C7.50977 11.472 9.52407 13.4863 12 13.4863C14.4759 13.4863 16.4902 11.472 16.4902 8.99609V5.49152C16.4902 4.94715 16.0489 4.50586 15.5046 4.50586Z" fill="#FC573B"/>
<path d="M5.99219 20.511C6.54519 20.511 6.99348 20.0627 6.99348 19.5097C6.99348 18.9567 6.54519 18.5084 5.99219 18.5084C5.4392 18.5084 4.99091 18.9567 4.99091 19.5097C4.99091 20.0627 5.4392 20.511 5.99219 20.511Z" fill="white"/>
<path d="M9.99738 20.511C10.5504 20.511 10.9987 20.0627 10.9987 19.5097C10.9987 18.9567 10.5504 18.5084 9.99738 18.5084C9.44438 18.5084 8.99609 18.9567 8.99609 19.5097C8.99609 20.0627 9.44438 20.511 9.99738 20.511Z" fill="white"/>
<path d="M14.0026 20.511C14.5556 20.511 15.0039 20.0627 15.0039 19.5097C15.0039 18.9567 14.5556 18.5084 14.0026 18.5084C13.4496 18.5084 13.0013 18.9567 13.0013 19.5097C13.0013 20.0627 13.4496 20.511 14.0026 20.511Z" fill="white"/>
<path d="M18.0078 20.511C18.5608 20.511 19.0091 20.0627 19.0091 19.5097C19.0091 18.9567 18.5608 18.5084 18.0078 18.5084C17.4548 18.5084 17.0065 18.9567 17.0065 19.5097C17.0065 20.0627 17.4548 20.511 18.0078 20.511Z" fill="white"/>
</g>
<defs>
<clipPath id="clip0_1108_33">
<rect width="24" height="24" fill="white"/>
</clipPath>
</defs>
</svg>
