<svg width="24" height="24" viewBox="0 0 24 24" fill="none" xmlns="http://www.w3.org/2000/svg">
<g clip-path="url(#clip0_1106_41)">
<path d="M9.08836 7.6376C8.81632 7.6376 8.55284 7.49274 8.41352 7.23706L6.46408 3.65942C6.26123 3.2871 6.39857 2.82076 6.77088 2.61786C7.14325 2.41505 7.60953 2.55239 7.81239 2.92466L9.76183 6.50231C10.042 7.01652 9.66489 7.6376 9.08836 7.6376Z" fill="#81BFE2"/>
<path d="M14.9117 7.63748C14.3354 7.63748 13.958 7.01659 14.2383 6.50224L16.1877 2.92459C16.3906 2.55227 16.8569 2.41489 17.2292 2.61779C17.6015 2.82065 17.7389 3.28703 17.536 3.65935L15.5866 7.23699C15.4473 7.49262 15.1837 7.63748 14.9117 7.63748Z" fill="#81BFE2"/>
<path d="M20.2103 6.25061H3.78972C2.38108 6.25061 1.23511 7.39658 1.23511 8.80523V18.5777C1.23511 19.9863 2.38112 21.1323 3.78972 21.1323H14.1V22.5016C14.1 23.8935 15.8284 24.5247 16.7301 23.4786L18.7521 21.1323H20.2103C21.6189 21.1323 22.7649 19.9863 22.7649 18.5777V8.80523C22.765 7.39658 21.6189 6.25061 20.2103 6.25061Z" fill="#5588C3"/>
<path d="M6.66781 0C5.54855 0 4.63794 0.910566 4.63794 2.02987C4.63794 3.14917 5.54855 4.05973 6.66781 4.05973C7.78706 4.05973 8.69767 3.14917 8.69767 2.02987C8.69767 0.910566 7.78706 0 6.66781 0Z" fill="#5588C3"/>
<path d="M17.3322 0C16.213 0 15.3024 0.910566 15.3024 2.02987C15.3024 3.14917 16.213 4.05973 17.3322 4.05973C18.4515 4.05973 19.3621 3.14917 19.3621 2.02987C19.3621 0.910566 18.4515 0 17.3322 0Z" fill="#5588C3"/>
<path d="M18.1915 12.9945H5.80838C5.38437 12.9945 5.04065 13.3383 5.04065 13.7622V16.9268C5.04065 17.3509 5.38437 17.6946 5.80838 17.6946H18.1915C18.6155 17.6946 18.9592 17.3508 18.9592 16.9268V13.7622C18.9593 13.3383 18.6155 12.9945 18.1915 12.9945Z" fill="#E8E8E8"/>
<path d="M14.2083 12.9945H9.79184C9.36783 12.9945 9.02411 13.3382 9.02411 13.7622V16.9268C9.02411 17.3509 9.36783 17.6946 9.79184 17.6946H14.2083C14.6323 17.6946 14.976 17.3508 14.976 16.9268V13.7622C14.976 13.3382 14.6323 12.9945 14.2083 12.9945Z" fill="white"/>
<path d="M9.62654 11.1699H7.46884C7.04483 11.1699 6.70111 10.8261 6.70111 10.4021C6.70111 9.97812 7.04483 9.6344 7.46884 9.6344H9.62654C10.0505 9.6344 10.3943 9.97812 10.3943 10.4021C10.3943 10.8261 10.0505 11.1699 9.62654 11.1699Z" fill="#81BFE2"/>
<path d="M16.5312 11.1699H14.3735C13.9495 11.1699 13.6058 10.8261 13.6058 10.4021C13.6058 9.97812 13.9495 9.6344 14.3735 9.6344H16.5312C16.9552 9.6344 17.2989 9.97812 17.2989 10.4021C17.2989 10.8261 16.9552 11.1699 16.5312 11.1699Z" fill="#81BFE2"/>
</g>
<defs>
<clipPath id="clip0_1106_41">
<rect width="24" height="24" fill="white"/>
</clipPath>
</defs>
</svg>
