<svg width="20" height="20" viewBox="0 0 20 20" fill="none" xmlns="http://www.w3.org/2000/svg">
<g clip-path="url(#clip0)">
<path d="M10 0.416367C4.4875 0.416367 0 4.08137 0 8.58554C0 12.6197 3.55833 15.9997 8.3625 16.6422C8.68833 16.7114 9.13167 16.8589 9.24417 17.1372C9.34417 17.3897 9.31 17.7797 9.27583 18.043L9.13917 18.898C9.10167 19.1505 8.93917 19.8922 10.0133 19.4389C11.0892 18.9872 15.7767 16.0189 17.8767 13.5897C19.3133 12.0064 20 10.3839 20 8.58554C20 4.08137 15.5125 0.416367 10 0.416367ZM6.08583 11.2639H4.0975C3.81 11.2639 3.5725 11.0247 3.5725 10.7364V6.73553C3.5725 6.44637 3.81 6.2072 4.0975 6.2072C4.3875 6.2072 4.6225 6.44637 4.6225 6.73553V10.208H6.08583C6.37583 10.208 6.61 10.4455 6.61 10.7364C6.61 11.0247 6.375 11.2639 6.08583 11.2639ZM8.14083 10.7364C8.14083 11.0247 7.90583 11.2639 7.615 11.2639C7.3275 11.2639 7.0925 11.0247 7.0925 10.7364V6.73553C7.0925 6.44637 7.3275 6.2072 7.6175 6.2072C7.90583 6.2072 8.14083 6.44637 8.14083 6.73553V10.7364ZM12.925 10.7364C12.925 10.963 12.78 11.1639 12.565 11.2364C12.5117 11.2539 12.4542 11.2622 12.3992 11.2622C12.2233 11.2622 12.0733 11.1864 11.9742 11.0522L9.93833 8.27053V10.7355C9.93833 11.0239 9.70583 11.263 9.4125 11.263C9.12417 11.263 8.89083 11.0239 8.89083 10.7355V6.73553C8.89083 6.50887 9.035 6.30803 9.24917 6.23637C9.29917 6.2172 9.3625 6.20887 9.41083 6.20887C9.57333 6.20887 9.72333 6.29637 9.82333 6.4222L11.875 9.2147V6.73553C11.875 6.44637 12.11 6.2072 12.4 6.2072C12.6875 6.2072 12.925 6.44637 12.925 6.73553V10.7364ZM16.1375 8.2072C16.4283 8.2072 16.6625 8.44637 16.6625 8.73637C16.6625 9.02553 16.4283 9.2647 16.1375 9.2647H14.675V10.208H16.1375C16.4283 10.208 16.6625 10.4455 16.6625 10.7364C16.6625 11.0247 16.4283 11.2639 16.1375 11.2639H14.1492C13.8617 11.2639 13.6267 11.0247 13.6267 10.7364V6.73553C13.6267 6.44637 13.8617 6.2072 14.1517 6.2072H16.14C16.4283 6.2072 16.6625 6.44637 16.6625 6.73553C16.6625 7.02803 16.4283 7.26387 16.1375 7.26387H14.675V8.2072H16.1375Z" fill="#4CAF50"/>
</g>
<defs>
<clipPath id="clip0">
<rect width="20" height="20" fill="white"/>
</clipPath>
</defs>
</svg>
