<svg width="24" height="24" viewBox="0 0 24 24" fill="none" xmlns="http://www.w3.org/2000/svg">
<g clip-path="url(#clip0_1106_29)">
<path d="M13.65 24H3.15C1.41015 24 0 21.9855 0 19.5V4.5C0 2.0145 1.41015 0 3.15 0H13.65C15.3898 0 16.8 2.0145 16.8 4.5V19.5C16.8 21.9855 15.3898 24 13.65 24Z" fill="white"/>
<rect x="10" y="3" width="9" height="4" fill="white"/>
<path d="M15.3627 14.5005C15.0902 14.5005 14.8272 14.46 14.5752 14.37V19.9995H1.97562V3C1.97562 2.4495 2.4481 1.9995 3.02611 1.9995H10.3859C10.9954 1.0995 12.0553 0.4995 13.2633 0.4995H15.2682C14.7642 0.1905 14.1657 0 13.5247 0H3.02454C1.29209 0 -0.125366 1.35 -0.125366 3V21C-0.125366 22.65 1.29209 24 3.02454 24H13.5247C15.2572 24 16.6746 22.65 16.6746 21V14.1195C16.2966 14.3595 15.8352 14.5005 15.3627 14.5005Z" fill="#5588C3"/>
<path d="M8.22291 15.999C9.37518 15.999 10.3093 15.1038 10.3093 13.9995C10.3093 12.8952 9.37518 12 8.22291 12C7.07064 12 6.13654 12.8952 6.13654 13.9995C6.13654 15.1038 7.07064 15.999 8.22291 15.999Z" fill="#5588C3"/>
<path d="M12.3964 19.7505V20.001H4.04932V19.7505C4.04932 18.231 5.33275 17.001 6.91827 17.001H9.52741C11.1129 16.9995 12.3964 18.2295 12.3964 19.7505Z" fill="#5588C3"/>
<path d="M22.0482 1.99927H13.1784C12.172 1.99927 11.3519 2.78377 11.3519 3.74977V8.24977C11.3519 9.21427 12.1705 10.0003 13.1784 10.0003H14.4822V12.2503C14.4822 12.5593 14.681 12.8368 14.9815 12.9493C15.0738 12.9838 15.1693 13.0003 15.2648 13.0003C15.4792 13.0003 15.6905 12.9148 15.8408 12.7573L18.4781 10.0003H22.0482C23.0546 10.0003 23.8748 9.21577 23.8748 8.24977V3.74977C23.8748 2.78527 23.0546 1.99927 22.0482 1.99927ZM15.005 6.74977C14.573 6.74977 14.2224 6.41377 14.2224 5.99977C14.2224 5.58577 14.573 5.24977 15.005 5.24977C15.437 5.24977 15.7876 5.58577 15.7876 5.99977C15.7876 6.41377 15.437 6.74977 15.005 6.74977ZM17.6141 6.74977C17.1821 6.74977 16.8315 6.41377 16.8315 5.99977C16.8315 5.58577 17.1821 5.24977 17.6141 5.24977C18.0461 5.24977 18.3967 5.58577 18.3967 5.99977C18.3967 6.41377 18.0461 6.74977 17.6141 6.74977ZM20.2217 6.74977C19.7897 6.74977 19.4391 6.41377 19.4391 5.99977C19.4391 5.58577 19.7897 5.24977 20.2217 5.24977C20.6537 5.24977 21.0043 5.58577 21.0043 5.99977C21.0043 6.41377 20.6537 6.74977 20.2217 6.74977Z" fill="#81BFE2"/>
</g>
<defs>
<clipPath id="clip0_1106_29">
<rect width="24" height="24" fill="white"/>
</clipPath>
</defs>
</svg>
