<svg width="24" height="24" viewBox="0 0 24 24" fill="none" xmlns="http://www.w3.org/2000/svg">
<path d="M6.75001 18.375L3.75001 21.375H1.16626C1.18502 21.3308 1.2147 21.2921 1.25251 21.2625L4.39501 18.4688C4.46337 18.4085 4.55136 18.3751 4.64251 18.375H6.75001Z" fill="#60CFE9"/>
<path d="M22.875 21.5438V22.5C22.875 22.5995 22.8355 22.6948 22.7652 22.7652C22.6948 22.8355 22.5995 22.875 22.5 22.875H1.5C1.40054 22.875 1.30516 22.8355 1.23484 22.7652C1.16451 22.6948 1.125 22.5995 1.125 22.5V21.5438C1.12486 21.485 1.13902 21.4271 1.16625 21.375H22.8338C22.861 21.4271 22.8751 21.485 22.875 21.5438V21.5438Z" fill="#60CFE9"/>
<path d="M16.5 14.5875V14.625H13.5L12 16.875L10.5 14.625H7.5V14.5875C7.50011 14.1526 7.62626 13.727 7.86319 13.3623C8.10012 12.9976 8.43767 12.7094 8.835 12.5325L10.875 11.625C10.875 11.9234 10.9935 12.2095 11.2045 12.4205C11.4155 12.6315 11.7016 12.75 12 12.75C12.2984 12.75 12.5845 12.6315 12.7955 12.4205C13.0065 12.2095 13.125 11.9234 13.125 11.625L15.165 12.5325C15.5623 12.7094 15.8999 12.9976 16.1368 13.3623C16.3737 13.727 16.4999 14.1526 16.5 14.5875V14.5875Z" fill="#FFD200"/>
<path d="M15 8.62493C15.2773 8.62556 15.5448 8.52258 15.75 8.33618V9.37493C15.75 9.47439 15.7105 9.56977 15.6402 9.6401C15.5699 9.71042 15.4745 9.74993 15.375 9.74993H14.1525C14.4022 9.39441 14.5583 8.9817 14.6063 8.54993C14.7315 8.59998 14.8652 8.62545 15 8.62493V8.62493Z" fill="#86E7FD"/>
<path d="M15.75 6.66364C15.919 6.8157 16.0379 7.0154 16.0912 7.23641C16.1444 7.45743 16.1295 7.68938 16.0483 7.90172C15.9671 8.11406 15.8234 8.29681 15.6363 8.42591C15.4492 8.555 15.2273 8.62437 15 8.62489C14.8652 8.6254 14.7315 8.59994 14.6063 8.54989C14.6182 8.45033 14.6245 8.35016 14.625 8.24989V6.74989C14.6245 6.64961 14.6182 6.54945 14.6063 6.44989C14.7315 6.39983 14.8652 6.37437 15 6.37489C15.2773 6.37426 15.5448 6.47724 15.75 6.66364Z" fill="#86E7FD"/>
<path d="M9.375 6.74989V8.24989C9.37552 8.35016 9.38178 8.45033 9.39375 8.54989C9.26853 8.59994 9.13485 8.6254 9 8.62489C8.70163 8.62489 8.41548 8.50636 8.2045 8.29538C7.99353 8.0844 7.875 7.79825 7.875 7.49989C7.87609 7.20185 7.99496 6.91633 8.20571 6.70559C8.41645 6.49485 8.70197 6.37597 9 6.37489C9.13485 6.37437 9.26853 6.39983 9.39375 6.44989C9.38178 6.54945 9.37552 6.64961 9.375 6.74989V6.74989Z" fill="#86E7FD"/>
<path d="M14.6063 6.44995C14.6182 6.54951 14.6245 6.64967 14.625 6.74995H13.875L13.125 5.99995L11.625 6.74995H9.375C9.37496 6.23074 9.5289 5.72319 9.81733 5.29148C10.1058 4.85976 10.5158 4.52328 10.9954 4.32458C11.4751 4.12589 12.0029 4.0739 12.5122 4.17521C13.0214 4.27651 13.4891 4.52655 13.8563 4.8937C14.2763 5.31181 14.5409 5.86088 14.6063 6.44995V6.44995Z" fill="#86E7FD"/>
<path d="M22.998 20.9827L19.8559 18.1894C19.7186 18.0673 19.5412 18 19.3575 18H4.6425C4.45892 18 4.28173 18.0674 4.1445 18.1894L1.002 20.9827C0.922782 21.0531 0.859366 21.1394 0.81593 21.2361C0.772495 21.3327 0.750025 21.4374 0.75 21.5434V22.5C0.75 22.6989 0.829018 22.8897 0.96967 23.0303C1.11032 23.171 1.30109 23.25 1.5 23.25H22.5C22.6989 23.25 22.8897 23.171 23.0303 23.0303C23.171 22.8897 23.25 22.6989 23.25 22.5V21.5434C23.25 21.4374 23.2275 21.3327 23.1841 21.2361C23.1406 21.1394 23.0772 21.0531 22.998 20.9827ZM21.8888 21H4.65525L6.90525 18.75H19.3575L21.8888 21ZM4.6425 18.75H5.84475L3.59475 21H2.11125L4.6425 18.75ZM1.5 22.5V21.75H22.5V22.5H1.5Z" fill="#2889C6"/>
<path d="M5.25 15H10.2994L11.6869 17.0831C11.7211 17.1345 11.7675 17.1766 11.8219 17.2057C11.8764 17.2348 11.9371 17.2501 11.9989 17.2501C12.0606 17.2501 12.1214 17.2348 12.1758 17.2057C12.2302 17.1766 12.2766 17.1345 12.3109 17.0831L13.7006 15H18.75C19.0484 15 19.3345 14.8815 19.5455 14.6705C19.7565 14.4595 19.875 14.1734 19.875 13.875V1.875C19.875 1.57663 19.7565 1.29048 19.5455 1.0795C19.3345 0.868526 19.0484 0.75 18.75 0.75H5.25C4.95163 0.75 4.66548 0.868526 4.4545 1.0795C4.24353 1.29048 4.125 1.57663 4.125 1.875V13.875C4.125 14.1734 4.24353 14.4595 4.4545 14.6705C4.66548 14.8815 4.95163 15 5.25 15ZM13.5 14.25C13.4383 14.25 13.3775 14.2652 13.3231 14.2943C13.2687 14.3234 13.2223 14.3655 13.188 14.4169L12 16.2L10.812 14.418C10.7779 14.3664 10.7315 14.3241 10.6771 14.2948C10.6227 14.2655 10.5618 14.2501 10.5 14.25H7.90913C7.96367 13.9501 8.0905 13.6681 8.27862 13.4283C8.46674 13.1885 8.71049 12.9981 8.98875 12.8738L10.6013 12.1567C10.708 12.4413 10.8991 12.6864 11.1489 12.8595C11.3987 13.0325 11.6954 13.1252 11.9993 13.1252C12.3031 13.1252 12.5998 13.0325 12.8496 12.8595C13.0994 12.6864 13.2905 12.4413 13.3973 12.1567L15.0098 12.8741C15.2882 12.9983 15.5323 13.1885 15.7207 13.4282C15.909 13.668 16.0361 13.95 16.0909 14.25H13.5ZM15 6.75C15.1989 6.75 15.3897 6.82902 15.5303 6.96967C15.671 7.11032 15.75 7.30109 15.75 7.5C15.75 7.69891 15.671 7.88968 15.5303 8.03033C15.3897 8.17098 15.1989 8.25 15 8.25V6.75ZM14.9036 8.991C14.9359 8.99288 14.9678 9 15 9C15.1268 8.99842 15.2528 8.98052 15.375 8.94675V9.375H14.7791C14.8291 9.2499 14.8707 9.12162 14.9036 8.991ZM15 6C14.9678 6 14.9359 6.00713 14.9036 6.009C14.7399 5.36311 14.3654 4.79025 13.8395 4.38106C13.3136 3.97186 12.6663 3.74969 12 3.74969C11.3337 3.74969 10.6864 3.97186 10.1605 4.38106C9.63458 4.79025 9.26014 5.36311 9.09638 6.009C9.06413 6.00713 9.03225 6 9 6C8.87872 6.00131 8.75806 6.01756 8.64075 6.04838C8.72257 5.21432 9.11178 4.44054 9.73263 3.87762C10.3535 3.3147 11.1616 3.0029 11.9996 3.0029C12.8377 3.0029 13.6458 3.3147 14.2666 3.87762C14.8875 4.44054 15.2767 5.21432 15.3585 6.04838C15.2414 6.01774 15.121 6.0015 15 6ZM14.2163 6.375H14.0288L13.3886 5.73488C13.333 5.67921 13.2613 5.64244 13.1836 5.62979C13.106 5.61714 13.0263 5.62924 12.9559 5.66437L11.5365 6.375H9.78375C9.87189 5.85094 10.1429 5.37507 10.5486 5.03187C10.9544 4.68867 11.4686 4.50036 12 4.50036C12.5314 4.50036 13.0456 4.68867 13.4514 5.03187C13.8571 5.37507 14.1281 5.85094 14.2163 6.375ZM9 6.75V8.25C8.80109 8.25 8.61032 8.17098 8.46967 8.03033C8.32902 7.88968 8.25 7.69891 8.25 7.5C8.25 7.30109 8.32902 7.11032 8.46967 6.96967C8.61032 6.82902 8.80109 6.75 9 6.75ZM9.75 7.125H11.625C11.6832 7.12505 11.7406 7.11157 11.7926 7.08563L13.05 6.45637L13.6088 7.01513C13.6437 7.05008 13.6852 7.07779 13.7309 7.09664C13.7766 7.1155 13.8256 7.12514 13.875 7.125H14.25V8.25C14.2498 8.64534 14.1447 9.03354 13.9455 9.375H12V10.125H13.2413C12.9024 10.3499 12.5089 10.4786 12.1027 10.4975C11.6965 10.5165 11.2927 10.4248 10.9344 10.2324C10.5762 10.04 10.2768 9.75402 10.0682 9.40491C9.85965 9.05581 9.74967 8.65667 9.75 8.25V7.125ZM11.25 11.1514C11.7414 11.2829 12.2586 11.2829 12.75 11.1514V11.625C12.75 11.8239 12.671 12.0147 12.5303 12.1553C12.3897 12.296 12.1989 12.375 12 12.375C11.8011 12.375 11.6103 12.296 11.4697 12.1553C11.329 12.0147 11.25 11.8239 11.25 11.625V11.1514ZM4.875 1.875C4.875 1.77554 4.91451 1.68016 4.98483 1.60984C5.05516 1.53951 5.15054 1.5 5.25 1.5H18.75C18.8495 1.5 18.9448 1.53951 19.0152 1.60984C19.0855 1.68016 19.125 1.77554 19.125 1.875V13.875C19.125 13.9745 19.0855 14.0698 19.0152 14.1402C18.9448 14.2105 18.8495 14.25 18.75 14.25H16.8503C16.7928 13.8035 16.6216 13.3793 16.3529 13.0181C16.0843 12.6569 15.7272 12.3709 15.3161 12.1875L13.5 11.3812V10.8442C13.8212 10.658 14.1053 10.4142 14.3381 10.125H15.375C15.5739 10.125 15.7647 10.046 15.9053 9.90533C16.046 9.76468 16.125 9.57391 16.125 9.375V8.48175C16.3665 8.21176 16.5 7.86223 16.5 7.5C16.5 7.13777 16.3665 6.78824 16.125 6.51825V6.375C16.125 5.28098 15.6904 4.23177 14.9168 3.45818C14.1432 2.6846 13.094 2.25 12 2.25C10.906 2.25 9.85677 2.6846 9.08318 3.45818C8.3096 4.23177 7.875 5.28098 7.875 6.375V6.51825C7.68404 6.73397 7.5596 7.00035 7.51669 7.28523C7.47378 7.57012 7.51424 7.86133 7.63319 8.12373C7.75214 8.38612 7.94448 8.60849 8.18702 8.76398C8.42955 8.91947 8.71191 9.00144 9 9C9.03225 9 9.06413 8.99288 9.09638 8.991C9.19571 9.37757 9.37098 9.74051 9.61195 10.0587C9.85293 10.3768 10.1548 10.6439 10.5 10.8442V11.3812L8.68388 12.1875C8.2729 12.3711 7.91598 12.6572 7.64735 13.0183C7.37871 13.3795 7.20737 13.8036 7.14975 14.25H5.25C5.15054 14.25 5.05516 14.2105 4.98483 14.1402C4.91451 14.0698 4.875 13.9745 4.875 13.875V1.875Z" fill="#2889C6"/>
<path d="M10.5 7.5H11.25V8.25H10.5V7.5Z" fill="#2889C6"/>
<path d="M12.75 7.5H13.5V8.25H12.75V7.5Z" fill="#2889C6"/>
<path d="M11.625 19.5H12.375V20.25H11.625V19.5Z" fill="#2889C6"/>
<path d="M13.125 19.5H13.875V20.25H13.125V19.5Z" fill="#2889C6"/>
<path d="M10.125 19.5H10.875V20.25H10.125V19.5Z" fill="#2889C6"/>
</svg>
