<svg width="24" height="24" viewBox="0 0 24 24" fill="none" xmlns="http://www.w3.org/2000/svg">
<path d="M24 7.00048C24 5.89798 23.103 5.00098 22.0005 5.00098H12C10.8975 5.00098 10.0005 5.89798 10.0005 7.00048V13.0005C10.0005 14.103 10.8975 15 12 15H22.0005C23.103 15 24 14.103 24 13.0005V7.00048ZM22.0005 8.99998L17.3205 11.1795C17.22 11.229 17.1105 11.25 17.001 11.25C16.8915 11.25 16.7805 11.2305 16.6815 11.1795L12 8.99998V7.33948L16.9995 9.66898L21.999 7.33948V8.99998H22.0005Z" fill="#A5DCA3"/>
<path d="M15 16.0005C14.448 16.0005 13.9995 16.4475 13.9995 17.001V19.0005H1.9995V3C1.9995 2.448 2.4465 1.9995 3 1.9995H13.0005C13.5525 1.9995 14.001 2.4465 14.001 3C14.001 3.552 14.448 4.0005 15.0015 4.0005C15.5535 4.0005 16.002 3.5535 16.002 3C16.002 1.3425 14.6595 0 13.002 0H3C1.3425 0 0 1.3425 0 3V21C0 22.6575 1.3425 24 3 24H13.0005C14.658 24 16.0005 22.6575 16.0005 21V16.9995C16.0005 16.4475 15.552 16.0005 15 16.0005Z" fill="#00A859"/>
</svg>
