<svg width="20" height="20" viewBox="0 0 20 20" fill="none" xmlns="http://www.w3.org/2000/svg">
<path d="M10 20C15.5228 20 20 15.5228 20 10C20 4.47715 15.5228 0 10 0C4.47715 0 0 4.47715 0 10C0 15.5228 4.47715 20 10 20Z" fill="#039BE5"/>
<path d="M4.57556 9.78374L14.2172 6.06624C14.6647 5.90457 15.0556 6.1754 14.9106 6.85207L14.9114 6.85124L13.2697 14.5854C13.1481 15.1337 12.8222 15.2671 12.3664 15.0087L9.8664 13.1662L8.66056 14.3279C8.52723 14.4612 8.41473 14.5737 8.1564 14.5737L8.3339 12.0296L12.9672 7.84374C13.1689 7.66624 12.9222 7.56624 12.6564 7.7429L6.93056 11.3479L4.46223 10.5779C3.9264 10.4079 3.91473 10.0421 4.57556 9.78374Z" fill="white"/>
</svg>
