<svg width="20" height="20" viewBox="0 0 20 20" fill="none" xmlns="http://www.w3.org/2000/svg">
<g clip-path="url(#clip0)">
<path d="M0.46462 20C0.352315 20 0.243063 19.9556 0.162038 19.8737C0.0552268 19.7656 0.0140281 19.6088 0.0541587 19.4621L1.35436 14.7142C0.544881 13.2504 0.118093 11.5945 0.118703 9.91364C0.120992 4.44717 4.56954 0 10.0355 0C12.6868 0.00106812 15.1779 1.03378 17.0503 2.90756C18.9224 4.78149 19.953 7.27249 19.9522 9.92157C19.9498 15.3882 15.5012 19.8357 10.0355 19.8357C10.0355 19.8357 10.0314 19.8357 10.0313 19.8357C8.43474 19.8351 6.85195 19.446 5.44265 18.709L0.5725 19.9861C0.536794 19.9954 0.500478 20 0.46462 20Z" fill="#E5E5E5"/>
<path d="M0.464844 19.5744L1.81128 14.6576C0.980743 13.2185 0.543884 11.5861 0.544495 9.91377C0.546631 4.68198 4.80414 0.425545 10.0358 0.425545C12.5745 0.426613 14.9575 1.41477 16.7495 3.20829C18.5413 5.00181 19.5278 7.38584 19.5269 9.9214C19.5246 15.153 15.2665 19.4101 10.0358 19.4101C10.0355 19.4101 10.0359 19.4101 10.0358 19.4101H10.0316C8.44321 19.4095 6.88254 19.0111 5.49628 18.255L0.464844 19.5744ZM5.72928 16.5373L6.01752 16.708C7.22845 17.4267 8.61685 17.8068 10.0327 17.8076H10.0358C14.3836 17.8076 17.9224 14.2694 17.9243 9.92079C17.925 7.81339 17.1053 5.83173 15.6159 4.3411C14.1263 2.85047 12.1459 2.02909 10.0387 2.02818C5.68732 2.02818 2.14865 5.56593 2.14697 9.91438C2.14636 11.4046 2.56323 12.8557 3.35303 14.1115L3.54071 14.4099L2.74359 17.3201L5.72928 16.5373Z" fill="white"/>
<path d="M0.794922 19.2431L2.09482 14.4963C1.29282 13.1071 0.871216 11.531 0.871674 9.91682C0.873657 4.86616 4.98392 0.757118 10.0341 0.757118C12.4853 0.758186 14.7859 1.71217 16.5154 3.44358C18.2455 5.175 19.1976 7.47648 19.1967 9.92399C19.1946 14.9748 15.0842 19.0843 10.0346 19.0843C10.0341 19.0843 10.0347 19.0843 10.0346 19.0843H10.0305C8.4971 19.0837 6.9903 18.6989 5.6521 17.9695L0.794922 19.2431Z" fill="#64B161"/>
<path d="M0.464844 19.5744L1.81128 14.6576C0.980743 13.2185 0.543884 11.5861 0.544495 9.91377C0.546631 4.68198 4.80414 0.425545 10.0358 0.425545C12.5745 0.426613 14.9575 1.41477 16.7495 3.20829C18.5413 5.00181 19.5278 7.38584 19.5269 9.9214C19.5246 15.153 15.2665 19.4101 10.0358 19.4101C10.0355 19.4101 10.0359 19.4101 10.0358 19.4101H10.0316C8.44321 19.4095 6.88254 19.0111 5.49628 18.255L0.464844 19.5744ZM5.72928 16.5373L6.01752 16.708C7.22845 17.4267 8.61685 17.8068 10.0327 17.8076H10.0358C14.3836 17.8076 17.9224 14.2694 17.9243 9.92079C17.925 7.81339 17.1053 5.83173 15.6159 4.3411C14.1263 2.85047 12.1459 2.02909 10.0387 2.02818C5.68732 2.02818 2.14865 5.56593 2.14697 9.91438C2.14636 11.4046 2.56323 12.8557 3.35303 14.1115L3.54071 14.4099L2.74359 17.3201L5.72928 16.5373Z" fill="white"/>
<path fill-rule="evenodd" clip-rule="evenodd" d="M7.6636 5.94704C7.48599 5.55214 7.29892 5.54421 7.12985 5.53734C6.99161 5.53139 6.83337 5.5317 6.67544 5.5317C6.51736 5.5317 6.26041 5.5912 6.04312 5.82848C5.82568 6.06575 5.21289 6.63948 5.21289 7.80632C5.21289 8.97332 6.0628 10.1008 6.18136 10.2592C6.29993 10.4174 7.82199 12.8884 10.2324 13.839C12.2357 14.6291 12.6433 14.472 13.0782 14.4325C13.5131 14.3929 14.4812 13.8587 14.6788 13.305C14.8766 12.7512 14.8766 12.2767 14.8172 12.1774C14.7579 12.0786 14.5998 12.0193 14.3627 11.9007C14.1255 11.7822 12.9596 11.2083 12.7422 11.1292C12.5247 11.05 12.3667 11.0107 12.2086 11.2481C12.0503 11.4852 11.5962 12.0193 11.4578 12.1774C11.3194 12.3359 11.1811 12.3557 10.9439 12.237C10.7068 12.1182 9.94296 11.8679 9.03689 11.06C8.33194 10.4314 7.85586 9.65508 7.71746 9.41765C7.57922 9.18053 7.71518 9.06334 7.82168 8.93379C8.01348 8.70049 8.33529 8.28102 8.41433 8.12294C8.49337 7.96456 8.45385 7.82616 8.39465 7.70745C8.33529 7.58889 7.87433 6.41609 7.6636 5.94704Z" fill="white"/>
</g>
<defs>
<clipPath id="clip0">
<rect width="20" height="20" fill="white"/>
</clipPath>
</defs>
</svg>
