<svg width="40" height="41" viewBox="0 0 40 41" fill="none" xmlns="http://www.w3.org/2000/svg">
<path d="M37.0171 9.08979L22.342 0.57728C21.0472 -0.190046 19.4166 -0.166067 18.1217 0.57728L2.9431 9.52141C1.67222 10.2648 0.880913 11.6316 0.880913 13.1183L0.856934 27.026C0.856934 28.4887 1.62426 29.8555 2.89514 30.6229L17.5942 39.4231C18.8891 40.1904 20.5196 40.2144 21.8145 39.4471L36.9212 30.7428C38.2161 29.9994 39.0074 28.6326 39.0074 27.1459L39.0793 12.7346C39.1033 11.2239 38.312 9.83314 37.0171 9.08979ZM19.8722 28.1051L6.15627 20.264L20.2319 11.8713L34.0437 19.8323L19.8722 28.1051Z" fill="url(#paint0_linear_8747_968)"/>
<defs>
<linearGradient id="paint0_linear_8747_968" x1="19.9743" y1="0.00178577" x2="19.9743" y2="40.0025" gradientUnits="userSpaceOnUse">
<stop offset="0.00130897" stop-color="#C44B97"/>
<stop offset="1" stop-color="#434A9F"/>
</linearGradient>
</defs>
</svg>
