<svg width="1580" height="635" viewBox="0 0 1580 635" fill="none" xmlns="http://www.w3.org/2000/svg">
<path d="M573.693 144.24L340.868 9.13392C320.324 -3.04464 294.455 -3.04464 273.912 9.13392L33.0977 151.09C12.9347 162.888 0.380433 184.581 0.380433 208.177L0 428.914C0 452.129 12.1739 473.822 32.3368 486.001L265.542 625.674C286.086 637.852 311.955 638.233 332.498 626.054L572.171 487.904C592.714 476.106 605.269 454.413 605.269 430.817L606.41 202.088C606.79 178.111 594.236 156.038 573.693 144.24ZM302.064 446.04L84.0757 321.59L307.39 188.387L526.519 314.74L302.064 446.04Z" fill="white"/>
<path d="M710.471 425.704V203.2H747.041V425.704H710.471ZM740.946 425.704V393.09H839.989V425.704H740.946Z" fill="white"/>
<path d="M944.196 431.19C929.975 431.19 917.582 428.752 907.017 423.875C896.452 418.998 887.818 412.598 881.113 404.673C874.409 396.545 869.33 387.502 865.876 377.546C862.625 367.386 861 357.022 861 346.456V340.665C861 329.895 862.625 319.532 865.876 309.575C869.33 299.415 874.409 290.373 881.113 282.448C887.818 274.32 896.249 267.919 906.407 263.246C916.769 258.369 928.756 255.93 942.368 255.93C960.043 255.93 974.773 259.791 986.556 267.513C998.34 275.234 1007.18 285.293 1013.07 297.688C1018.96 309.88 1021.91 323.088 1021.91 337.312V351.638H876.237V327.558H997.832L988.08 339.75C988.08 328.778 986.353 319.329 982.899 311.404C979.446 303.276 974.366 297.078 967.662 292.811C960.957 288.341 952.526 286.106 942.368 286.106C931.803 286.106 922.965 288.544 915.855 293.421C908.744 298.298 903.462 305.003 900.008 313.538C896.554 322.072 894.827 332.13 894.827 343.713C894.827 354.686 896.554 364.541 900.008 373.278C903.462 381.813 908.845 388.62 916.159 393.7C923.473 398.577 932.819 401.015 944.196 401.015C955.574 401.015 964.919 398.577 972.233 393.7C979.547 388.62 984.017 382.727 985.642 376.022H1018.86C1016.62 387.198 1012.05 396.951 1005.15 405.282C998.442 413.614 989.909 420.014 979.547 424.485C969.186 428.955 957.402 431.19 944.196 431.19Z" fill="white"/>
<path d="M1060.37 425.704V261.417H1088.71V331.826H1085.36C1085.36 315.57 1087.49 301.854 1091.76 290.678C1096.23 279.502 1102.93 271.069 1111.87 265.379C1120.81 259.486 1131.88 256.54 1145.09 256.54H1146.61C1166.93 256.54 1182.07 262.941 1192.02 275.742C1201.98 288.544 1206.95 307.238 1206.95 331.826V425.704H1171.3V326.949C1171.3 315.57 1168.05 306.426 1161.55 299.517C1155.05 292.405 1146.11 288.849 1134.73 288.849C1123.15 288.849 1113.8 292.506 1106.69 299.822C1099.58 306.934 1096.03 316.484 1096.03 328.473V425.704H1060.37Z" fill="white"/>
<path d="M1256.49 425.704V261.417H1284.83V331.826H1281.48C1281.48 315.57 1283.61 301.854 1287.88 290.678C1292.35 279.502 1299.06 271.069 1307.99 265.379C1316.93 259.486 1328.01 256.54 1341.21 256.54H1342.74C1363.05 256.54 1378.19 262.941 1388.14 275.742C1398.1 288.544 1403.08 307.238 1403.08 331.826V425.704H1367.42V326.949C1367.42 315.57 1364.17 306.426 1357.67 299.517C1351.17 292.405 1342.23 288.849 1330.85 288.849C1319.27 288.849 1309.92 292.506 1302.81 299.822C1295.7 306.934 1292.15 316.484 1292.15 328.473V425.704H1256.49Z" fill="white"/>
<path d="M1551.66 425.704V376.631H1545.87V321.158C1545.87 310.998 1543.23 303.276 1537.94 297.993C1532.66 292.71 1524.84 290.068 1514.48 290.068C1508.79 290.068 1502.49 290.17 1495.58 290.373C1488.68 290.576 1481.87 290.881 1475.17 291.287C1468.66 291.49 1462.87 291.795 1457.8 292.202V261.417C1462.27 261.01 1467.14 260.706 1472.42 260.502C1477.91 260.096 1483.5 259.791 1489.18 259.588C1495.08 259.385 1500.66 259.283 1505.95 259.283C1522.61 259.283 1536.42 261.417 1547.39 265.684C1558.36 269.951 1566.49 276.758 1571.77 286.106C1577.26 295.25 1580 307.543 1580 322.986V425.704H1551.66ZM1498.33 429.971C1486.34 429.971 1475.88 427.939 1466.94 423.875C1458 419.608 1451.09 413.512 1446.22 405.587C1441.34 397.459 1438.9 387.807 1438.9 376.631C1438.9 364.846 1441.64 355.092 1447.13 347.37C1452.82 339.649 1460.84 333.858 1471.2 329.997C1481.57 326.136 1493.96 324.206 1508.38 324.206H1549.52V347.675H1507.47C1496.7 347.675 1488.47 350.317 1482.78 355.6C1477.1 360.68 1474.25 367.386 1474.25 375.717C1474.25 384.048 1477.1 390.754 1482.78 395.834C1488.47 400.71 1496.7 403.149 1507.47 403.149C1513.77 403.149 1519.76 402.031 1525.45 399.796C1531.14 397.358 1535.81 393.395 1539.47 387.909C1543.33 382.422 1545.46 374.701 1545.87 364.744L1555.01 376.631C1553.99 388.214 1551.15 397.967 1546.48 405.892C1542.01 413.614 1535.71 419.608 1527.58 423.875C1519.66 427.939 1509.91 429.971 1498.33 429.971Z" fill="white"/>
</svg>
